<?xml version="1.0" encoding="utf-8"?>
<!-- Generator: Adobe Illustrator 25.2.3, SVG Export Plug-In . SVG Version: 6.00 Build 0)  -->
<svg version="1.1" id="Layer_1" focusable="false" xmlns="http://www.w3.org/2000/svg" xmlns:xlink="http://www.w3.org/1999/xlink"
	 x="0px" y="0px" viewBox="0 0 384 384" style="enable-background:new 0 0 384 384;" xml:space="preserve">
<style type="text/css">
	.st0{fill:#1DAF00;}
	.st1{fill:#FFFFFF;}
</style>
<g>
	<path class="st0" d="M279.7,359.3c-25.9,13-55.4,21.2-87.2,21.2c-23.6,0-46-4.7-66-11.8c0-1.2,0-1.2,0-2.4c0-5.9,2.4-11.8,5.9-17.7
		c3.5-5.9,8.3-13,15.3-21.2c17.7,2.4,43.6,4.7,76.6,4.7c22.4,1.2,37.7,2.4,46,5.9c7.1,3.5,11.8,8.3,11.8,16.5
		C280.9,355.7,280.9,358.1,279.7,359.3z M193.7,250.8c10.6,0,20-4.7,27.1-13c7.1-8.3,10.6-21.2,10.6-38.9c0-23.6-4.7-41.3-15.3-55.4
		c-7.1-9.4-16.5-14.1-28.3-14.1c-10.6,0-20,4.7-27.1,13c-7.1,8.3-10.6,22.4-10.6,40.1c0,23.6,4.7,41.3,15.3,54.2
		C172.5,246.1,181.9,250.8,193.7,250.8z M192.5,3.3C88.8,3.3,3.9,88.2,3.9,191.9c0,73.1,41.3,135.5,101.4,167.4
		c2.4-2.4,4.7-5.9,7.1-9.4c1.2-1.2,8.3-9.4,22.4-23.6c-7.1-4.7-13-8.3-16.5-11.8s-4.7-8.3-4.7-11.8c0-4.7,2.4-10.6,5.9-17.7
		c4.7-7.1,14.1-16.5,29.5-29.5c-11.8-5.9-22.4-14.1-28.3-24.8c-7.1-10.6-9.4-22.4-9.4-35.4c0-20,7.1-37.7,22.4-51.9
		s34.2-21.2,57.8-21.2c18.9,0,35.4,4.7,48.3,13c11.8-11.8,21.2-22.4,27.1-30.6c8.3-11.8,11.8-21.2,11.8-30.6c0-7.1-2.4-13-7.1-17.7
		c-4.7-4.7-9.4-7.1-15.3-7.1c-5.9,0-10.6,1.2-15.3,4.7c-4.7,3.5-8.3,8.3-9.4,14.1h-3.5c1.2-10.6,4.7-17.7,10.6-23.6
		c5.9-5.9,13-8.3,21.2-8.3c9.4,0,16.5,2.4,23.6,9.4c5.9,5.9,9.4,13,9.4,21.2c0,5.9-1.2,11.8-3.5,17.7c-3.5,9.4-10.6,18.9-20,28.3
		c-14.1,15.3-22.4,23.6-25.9,27.1l0,0h29.5c5.9,0,10.6,0,13-1.2c2.4,0,4.7-1.2,7.1-2.4c2.4-1.2,3.5-3.5,4.7-5.9h3.5l-10.6,25.9
		h-30.6c7.1,10.6,10.6,22.4,10.6,37.7c0,18.9-7.1,35.4-21.2,48.3c-14.1,13-34.2,20-57.8,20c-9.4,0-20-1.2-30.6-4.7
		c-7.1,5.9-10.6,10.6-13,14.1c-2.4,4.7-3.5,8.3-3.5,10.6c0,2.4,1.2,4.7,3.5,7.1c2.4,2.4,7.1,3.5,14.1,4.7c3.5,1.2,14.1,1.2,30.6,1.2
		c30.6,1.2,49.5,2.4,58.9,3.5c14.1,2.4,24.8,7.1,33,15.3c8.3,8.3,11.8,18.9,11.8,30.6c0,1.2,0,2.4,0,3.5
		c50.7-33,84.9-90.8,84.9-156.8C381.1,88.2,296.2,3.3,192.5,3.3z"/>
	<path class="st0" d="M216.1,144.7c10.6,13,15.3,31.8,15.3,55.4c0,17.7-3.5,30.6-10.6,38.9c-7.1,8.3-16.5,11.8-27.1,11.8
		c-11.8,0-21.2-4.7-29.5-14.1c-9.4-13-15.3-30.6-15.3-54.2c0-17.7,3.5-30.6,10.6-40.1c7.1-8.3,16.5-13,27.1-13
		C199.6,129.4,209,135.3,216.1,144.7z M134.7,326.2c-7.1-4.7-13-8.3-16.5-11.8c-3.5-3.5-4.7-8.3-4.7-11.8c0-4.7,2.4-10.6,5.9-17.7
		c4.7-7.1,14.1-16.5,29.5-29.5c-11.8-5.9-22.4-14.1-28.3-24.8c-7.1-10.6-9.4-22.4-9.4-35.4c0-20,7.1-37.7,22.4-51.9
		c15.3-14.1,34.2-21.2,57.8-21.2c18.9,0,35.4,4.7,48.3,13c11.8-11.8,21.2-22.4,27.1-30.6c8.3-11.8,11.8-21.2,11.8-30.6
		c0-7.1-2.4-13-7.1-17.7c-4.7-4.7-9.4-7.1-15.3-7.1c-5.9,0-10.6,1.2-15.3,4.7c-4.7,3.5-8.3,8.3-9.4,14.1h-3.5
		c1.2-10.6,4.7-17.7,10.6-23.6c5.9-5.9,13-8.3,21.2-8.3c4.7,0,9.4,1.2,13,2.4c-22.4-15.3-50.7-23.6-80.1-23.6
		c-97.8,0-176.8,79-176.8,176.8c0,68.4,38.9,128.5,96.6,157.9C113.5,347.5,121.8,340.4,134.7,326.2z M280.9,38.7
		c1.2,1.2,2.4,2.4,3.5,3.5c5.9,5.9,9.4,13,9.4,21.2c0,5.9-1.2,11.8-3.5,17.7c-3.5,9.4-10.6,18.9-20,28.3
		c-14.1,15.3-22.4,23.6-25.9,27.1l0,0h29.5c5.9,0,10.6,0,13-1.2c2.4,0,4.7-1.2,7.1-2.4c2.4-1.2,3.5-3.5,4.7-5.9h3.5l-11.8,29.5
		h-30.6c7.1,10.6,10.6,22.4,10.6,37.7c0,18.9-7.1,35.4-21.2,48.3c-14.1,13-34.2,20-57.8,20c-9.4,0-20-1.2-30.6-4.7
		c-7.1,5.9-10.6,10.6-13,14.1s-3.5,8.3-3.5,10.6c0,2.4,1.2,4.7,3.5,7.1c2.4,2.4,7.1,3.5,14.1,4.7c3.5,1.2,14.1,1.2,30.6,1.2
		c30.6,1.2,49.5,2.4,58.9,3.5c14.1,2.4,24.8,7.1,33,15.3c5.9,5.9,9.4,11.8,10.6,20c44.8-30.6,74.3-83.7,74.3-142.6
		C369.3,127.1,333.9,69.3,280.9,38.7z M269.1,338c-7.1-3.5-22.4-4.7-46-5.9c-33-1.2-58.9-2.4-76.6-4.7c-7.1,7.1-11.8,14.1-15.3,21.2
		c-1.2,2.4-2.4,5.9-3.5,8.3c20,8.3,42.4,11.8,64.8,11.8c30.6,0,60.1-8.3,86-22.4C276.2,342.7,273.8,340.4,269.1,338z"/>
	<path class="st1" d="M300.9,127.1h-3.5c-1.2,2.4-3.5,4.7-4.7,5.9c-2.4,1.2-4.7,2.4-7.1,2.4c-2.4,0-7.1,1.2-13,1.2h-29.5l0,0
		c3.5-3.5,11.8-11.8,25.9-27.1c9.4-10.6,15.3-20,20-28.3c2.4-5.9,3.5-11.8,3.5-17.7c0-8.3-3.5-15.3-9.4-21.2
		c-5.9-5.9-14.1-9.4-23.6-9.4c-8.3,0-15.3,2.4-21.2,8.3c-5.9,5.9-9.4,13-10.6,23.6h3.5c2.4-5.9,5.9-10.6,9.4-14.1
		c3.5-3.5,9.4-4.7,15.3-4.7c5.9,0,11.8,2.4,15.3,7.1c4.7,4.7,7.1,10.6,7.1,17.7c0,9.4-3.5,20-11.8,30.6
		c-5.9,8.3-15.3,18.9-27.1,30.6c-14.1-8.3-30.6-13-48.3-13c-23.6,0-42.4,7.1-57.8,21.2c-15.3,14.1-22.4,31.8-22.4,51.9
		c0,13,3.5,24.8,9.4,35.4c5.9,10.6,16.5,18.9,28.3,24.8c-15.3,13-24.8,22.4-29.5,29.5s-5.9,13-5.9,17.7c0,4.7,1.2,8.3,4.7,11.8
		c3.5,3.5,8.3,8.3,16.5,11.8c-14.1,14.1-21.2,22.4-22.4,23.6c-2.4,3.5-4.7,7.1-7.1,9.4c7.1,3.5,14.1,7.1,21.2,9.4c0-1.2,0-1.2,0-2.4
		c0-5.9,2.4-11.8,5.9-17.7s8.3-13,15.3-21.2c17.7,2.4,43.6,4.7,76.6,4.7c22.4,1.2,37.7,2.4,46,5.9c7.1,3.5,11.8,8.3,11.8,16.5
		c0,1.2,0,2.4,0,4.7c5.9-2.4,10.6-5.9,16.5-9.4c0-1.2,0-2.4,0-3.5c0-11.8-3.5-22.4-11.8-30.6c-8.3-8.3-18.9-13-33-15.3
		c-9.4-1.2-28.3-2.4-58.9-3.5c-16.5,0-27.1-1.2-30.6-1.2c-7.1-1.2-11.8-2.4-14.1-4.7c-2.4-2.4-3.5-4.7-3.5-7.1s1.2-5.9,3.5-10.6
		c2.4-4.7,7.1-9.4,13-14.1c10.6,3.5,21.2,4.7,30.6,4.7c24.8,0,43.6-7.1,57.8-20c14.1-13,21.2-29.5,21.2-48.3
		c0-15.3-3.5-27.1-10.6-37.7h30.6L300.9,127.1z M220.8,239c-7.1,8.3-16.5,11.8-27.1,11.8c-11.8,0-21.2-4.7-29.5-14.1
		c-9.4-13-15.3-30.6-15.3-54.2c0-17.7,3.5-30.6,10.6-40.1c7.1-8.3,16.5-13,27.1-13c11.8,0,21.2,4.7,28.3,14.1
		c10.6,13,15.3,31.8,15.3,55.4C231.4,217.8,227.9,230.8,220.8,239z"/>
</g>
</svg>
