<?xml version="1.0" encoding="utf-8"?>
<!-- Generator: Adobe Illustrator 25.2.3, SVG Export Plug-In . SVG Version: 6.00 Build 0)  -->
<svg version="1.1" id="Layer_1" focusable="false" xmlns="http://www.w3.org/2000/svg" xmlns:xlink="http://www.w3.org/1999/xlink"
	 x="0px" y="0px" viewBox="0 0 384 384" style="enable-background:new 0 0 384 384;" xml:space="preserve">
<style type="text/css">
	.st0{fill:#FFFFFF;}
	.st1{fill:url(#SVGID_1_);enable-background:new    ;}
	.st2{fill:url(#SVGID_2_);}
</style>
<g transform="translate(-35, -30) rotate(0 0 0) scale(14 14)">
	<path class="st0" d="M23.2,14c0.3-2.1-1.3-3.2-3.5-4l0.7-2.8l-1.7-0.4L18,9.5c-0.5-0.1-0.9-0.2-1.4-0.3l0.7-2.8L15.6,6l-0.7,2.8
		c-0.4-0.1-0.7-0.2-1.1-0.3l0,0L11.4,8l-0.5,1.8c0,0,1.3,0.3,1.3,0.3c0.7,0.2,0.8,0.6,0.8,1l-0.8,3.2c0,0,0.1,0,0.2,0.1l-0.2,0
		l-1.1,4.5c-0.1,0.2-0.3,0.5-0.8,0.4c0,0-1.3-0.3-1.3-0.3l-0.9,2l2.2,0.6c0.4,0.1,0.8,0.2,1.2,0.3l-0.7,2.9l1.7,0.4l0.7-2.8
		c0.5,0.1,0.9,0.2,1.4,0.4L14,25.5l1.7,0.4l0.7-2.9c2.9,0.6,5.2,0.3,6.1-2.3c0.8-2.1,0-3.4-1.6-4.2C22.1,16.3,23,15.6,23.2,14
		L23.2,14z M19.2,19.6c-0.5,2.1-4.1,1-5.3,0.7l0.9-3.8C16,16.7,19.8,17.3,19.2,19.6z M19.8,14c-0.5,2-3.5,1-4.5,0.7l0.9-3.4
		C17.1,11.5,20.3,12,19.8,14L19.8,14z"/>
</g>
<g>
	
		<linearGradient id="SVGID_1_" gradientUnits="userSpaceOnUse" x1="59.0665" y1="325.0774" x2="324.9321" y2="59.2118" gradientTransform="matrix(1 0 0 -1 0 385.7797)">
		<stop  offset="9.057242e-07" style="stop-color:#5AC8E9"/>
		<stop  offset="1" style="stop-color:#0C637E"/>
	</linearGradient>
	<path class="st1" d="M279.2,360.2c-26.1,13.7-55.7,21.4-87.2,21.4c-23.2,0-45.5-4.2-66.1-11.9c-0.1-0.7-0.2-1.7-0.2-2.4
		c0-5.4,1.8-11.3,5.3-17.7c3.5-6.4,8.8-13.3,15.7-20.8c17.8,2.5,43.2,4.2,76.2,5.1c22.6,0.6,37.7,2.5,45.4,5.7
		c7.5,3.2,11.2,8.6,11.2,16.2C279.6,357.3,279.4,358.8,279.2,360.2z M192.9,253c11.1,0,20.2-4.2,27.4-12.5
		c7.2-8.3,10.8-21.4,10.8-39.3c0-23.3-5-41.5-15.1-54.7c-7.5-9.7-17-14.5-28.7-14.5c-10.8,0-19.9,4.3-27.2,13
		c-7.3,8.6-11,21.9-11,39.7c0,23.1,5,41.1,14.9,53.8C171.5,248.1,181.2,253,192.9,253z M192,5.6C88.2,5.6,4,89.8,4,193.6
		C4,266,44.9,328.8,104.9,360.3c2.1-2.8,4.7-6.2,7.3-9.5c1-1.3,8.5-9.2,22.5-23.7c-7.6-4.6-13-8.6-16.2-12.2
		c-3.2-3.6-4.7-7.7-4.7-12.2c0-5.1,2.1-11.2,6.3-18.1c4.2-6.9,13.8-16.7,28.9-29.3c-12.3-6-21.8-14.4-28.4-25.2
		c-6.6-10.8-9.9-22.7-9.9-35.8c0-20,7.5-37.2,22.6-51.6c15.1-14.4,34.3-21.6,57.8-21.6c18.6,0,34.8,4.4,48.6,13.1
		c12.1-11.9,21.2-22,27-30.3c8-11.3,12-21.7,12-31.1c0-7.2-2.2-13-6.6-17.6c-4.4-4.6-9.6-6.9-15.7-6.9c-5.5,0-10.5,1.6-14.9,4.9
		c-4.4,3.2-7.7,8-9.8,14.3h-3.1c1.4-10.3,4.9-18.2,10.7-23.7c5.7-5.5,12.9-8.2,21.5-8.2c9.2,0,16.8,2.9,22.9,8.8
		c6.1,5.9,9.2,12.8,9.2,20.8c0,5.7-1.3,11.4-4,17.2c-4.1,9-10.8,18.5-20,28.6c-13.5,14.7-22,23.7-25.6,27l0.2,0.2h29
		c6,0,10.2-0.2,12.6-0.7c2.4-0.4,4.6-1.3,6.5-2.7c1.9-1.4,3.6-3.3,5.1-5.8h3.1l-10,28.8h-30.5c6.8,10.1,10.3,22.7,10.3,37.7
		c0,18.8-7.2,35-21.5,48.3c-14.4,13.4-33.6,20.1-57.8,20.1c-10,0-20.2-1.5-30.6-4.5c-6.5,5.5-10.9,10.4-13.1,14.5
		c-2.3,4.1-3.4,7.7-3.4,10.6c0,2.5,1.2,4.9,3.6,7.2c2.4,2.3,7.2,4,14.2,5c4.1,0.7,14.4,1.2,30.8,1.7c30.3,0.8,49.9,2,58.8,3.4
		c13.7,1.9,24.6,7,32.7,15.2c8.2,8.2,12.2,18.3,12.2,30.3c0,1.1,0,2.2-0.1,3.3c50.9-33.6,84.5-91.4,84.5-156.9
		C380,89.8,295.8,5.6,192,5.6z"/>
	
		<linearGradient id="SVGID_2_" gradientUnits="userSpaceOnUse" x1="67.5233" y1="316.6134" x2="316.4719" y2="67.6648" gradientTransform="matrix(1 0 0 -1 0 385.7797)">
		<stop  offset="9.057242e-07" style="stop-color:#5AC8E9"/>
		<stop  offset="1" style="stop-color:#066881"/>
	</linearGradient>
	<path class="st2" d="M215.9,146.5c10.1,13.2,15.1,31.4,15.1,54.7c0,17.9-3.6,31-10.8,39.3c-7.2,8.3-16.3,12.5-27.4,12.5
		c-11.7,0-21.4-4.8-29-14.5c-9.9-12.7-14.9-30.7-14.9-53.8c0-17.9,3.7-31.1,11-39.7c7.3-8.6,16.4-13,27.2-13
		C198.9,132,208.5,136.8,215.9,146.5z M134.7,327.1c-7.6-4.6-13-8.6-16.2-12.2c-3.2-3.6-4.7-7.7-4.7-12.2c0-5.1,2.1-11.2,6.3-18.1
		c4.2-6.9,13.8-16.7,28.9-29.3c-12.3-6-21.8-14.4-28.4-25.2c-6.6-10.8-9.9-22.7-9.9-35.8c0-20,7.5-37.2,22.6-51.6
		c15.1-14.4,34.3-21.6,57.8-21.6c18.6,0,34.8,4.4,48.6,13.1c12.1-11.9,21.2-22,27-30.3c8-11.3,12-21.7,12-31.1
		c0-7.2-2.2-13-6.6-17.6c-4.4-4.6-9.6-6.9-15.7-6.9c-5.5,0-10.5,1.6-14.9,4.9c-4.4,3.2-7.7,8-9.8,14.3h-3.1
		c1.4-10.3,4.9-18.2,10.7-23.7c5.7-5.5,12.9-8.2,21.5-8.2c4.9,0,9.4,0.9,13.4,2.6c-24.6-13-52.6-20.4-82.3-20.4
		c-97.2,0-176,78.8-176,176c0,68.5,39.2,127.9,96.3,157C113.7,349,121.1,341.2,134.7,327.1z M280,41.1c1.3,0.9,2.6,2,3.8,3.2
		c6.1,5.9,9.2,12.8,9.2,20.8c0,5.7-1.3,11.4-4,17.2c-4.1,9-10.8,18.5-20,28.6c-13.5,14.7-22,23.7-25.6,27l0.2,0.2h29
		c6,0,10.2-0.2,12.6-0.7c2.4-0.4,4.6-1.3,6.5-2.7c1.9-1.4,3.6-3.3,5.1-5.8h3.1l-10,28.8h-30.5c6.8,10.1,10.3,22.7,10.3,37.7
		c0,18.8-7.2,35-21.5,48.3c-14.4,13.4-33.6,20.1-57.8,20.1c-10,0-20.2-1.5-30.6-4.5c-6.5,5.5-10.9,10.4-13.1,14.5
		c-2.3,4.1-3.4,7.7-3.4,10.6c0,2.5,1.2,4.9,3.6,7.2c2.4,2.3,7.2,4,14.2,5c4.1,0.7,14.4,1.2,30.8,1.7c30.3,0.8,49.9,2,58.8,3.4
		c13.7,1.9,24.6,7,32.7,15.2c5.6,5.7,9.3,12.3,11.1,19.8C339,304.8,368,252.6,368,193.6C368,128.5,332.6,71.6,280,41.1z
		 M268.3,339.7c-7.6-3.2-22.8-5.1-45.4-5.7c-33-0.9-58.4-2.6-76.2-5.1c-6.9,7.4-12.2,14.4-15.7,20.8c-1.5,2.7-2.7,5.3-3.5,7.9
		c20,7.9,41.7,12.2,64.5,12.2c31.1,0,60.3-8.1,85.6-22.2C275.8,344.1,272.7,341.5,268.3,339.7z"/>
	<path class="st0" d="M299.9,128.9h-3.1c-1.4,2.5-3.1,4.4-5.1,5.8c-1.9,1.4-4.1,2.3-6.5,2.7c-2.4,0.4-6.6,0.7-12.6,0.7h-29l-0.2-0.2
		c3.6-3.3,12.1-12.3,25.6-27c9.2-10,15.9-19.6,20-28.6c2.7-5.7,4-11.4,4-17.2c0-8-3.1-14.9-9.2-20.8c-6.1-5.9-13.8-8.8-22.9-8.8
		c-8.6,0-15.8,2.7-21.5,8.2c-5.7,5.5-9.3,13.4-10.7,23.7h3.1c2.1-6.3,5.4-11,9.8-14.3c4.4-3.2,9.4-4.9,14.9-4.9
		c6.1,0,11.3,2.3,15.7,6.9c4.4,4.6,6.6,10.5,6.6,17.6c0,9.4-4,19.7-12,31.1c-5.9,8.3-14.9,18.4-27,30.3c-13.8-8.7-30-13.1-48.6-13.1
		c-23.5,0-42.8,7.2-57.8,21.6c-15.1,14.4-22.6,31.6-22.6,51.6c0,13.1,3.3,25,9.9,35.8c6.6,10.8,16,19.2,28.4,25.2
		c-15.1,12.6-24.7,22.4-28.9,29.3c-4.2,6.9-6.3,12.9-6.3,18.1c0,4.6,1.6,8.6,4.7,12.2c3.2,3.6,8.5,7.7,16.2,12.2
		c-14,14.5-21.5,22.4-22.5,23.7c-2.7,3.4-5.2,6.6-7.3,9.5c6.7,3.5,13.9,6.7,21.1,9.4c-0.1-0.7-0.2-1.6-0.2-2.4
		c0-5.4,1.8-11.3,5.3-17.7c3.5-6.4,8.8-13.3,15.7-20.8c17.8,2.5,43.2,4.2,76.2,5.1c22.6,0.6,37.7,2.5,45.4,5.7
		c7.5,3.2,11.2,8.6,11.2,16.2c0,1.6-0.1,2.9-0.4,4.4c5.6-2.9,11.1-6.2,16.4-9.7c0.1-1.2,0.1-2.1,0.1-3.3c0-12-4.1-22.1-12.2-30.3
		c-8.2-8.2-19.1-13.3-32.7-15.2c-9-1.5-28.6-2.6-58.8-3.4c-16.4-0.5-26.7-1.1-30.8-1.7c-7.1-1-11.8-2.7-14.2-5
		c-2.4-2.3-3.6-4.7-3.6-7.2c0-2.9,1.1-6.4,3.4-10.6c2.3-4.1,6.7-9,13.1-14.5c10.4,3,20.6,4.5,30.6,4.5c24.2,0,43.4-6.7,57.8-20.1
		c14.4-13.4,21.5-29.5,21.5-48.3c0-15-3.4-27.6-10.3-37.7H290L299.9,128.9z M220.3,240.5c-7.2,8.3-16.3,12.5-27.4,12.5
		c-11.7,0-21.4-4.8-29-14.5c-9.9-12.7-14.9-30.7-14.9-53.8c0-17.9,3.7-31.1,11-39.7c7.3-8.6,16.4-13,27.2-13
		c11.7,0,21.3,4.8,28.7,14.5c10.1,13.2,15.1,31.4,15.1,54.7C231,219,227.5,232.1,220.3,240.5z"/>
</g>
</svg>
