<?xml version="1.0" encoding="utf-8"?>
<!-- Generator: Adobe Illustrator 25.2.3, SVG Export Plug-In . SVG Version: 6.00 Build 0)  -->
<svg version="1.1" id="Layer_1" focusable="false" xmlns="http://www.w3.org/2000/svg" xmlns:xlink="http://www.w3.org/1999/xlink"
	 x="0px" y="0px" viewBox="0 0 512 512" style="enable-background:new 0 0 512 512;" xml:space="preserve">
<style type="text/css">
	.st0{fill:url(#SVGID_1_);}
	.st1{fill:url(#SVGID_2_);}
	.st2{fill:#FFFFFF;}
</style>
<linearGradient id="SVGID_1_" gradientUnits="userSpaceOnUse" x1="-40.4199" y1="676.5676" x2="-40.4199" y2="675.5676" gradientTransform="matrix(512 0 0 -512 20951 346402.5938)">
	<stop  offset="0" style="stop-color:#002A71"/>
	<stop  offset="1" style="stop-color:#04214D"/>
</linearGradient>
<rect y="0" class="st0" width="512" height="512"/>
<g>
	<linearGradient id="SVGID_2_" gradientUnits="userSpaceOnUse" x1="83.3488" y1="256" x2="428.6512" y2="256">
		<stop  offset="9.057242e-07" style="stop-color:#5AC8E9"/>
		<stop  offset="1" style="stop-color:#066881"/>
	</linearGradient>
	<path class="st1" d="M191.6,356.7c-11.2,11.6-18.4,19.1-21.5,22.5C98.6,277.3,83.3,253.7,83.3,198.4c0-95.4,77.3-172.7,172.7-172.7
		s172.7,77.3,172.7,172.7c0,51.8-13.4,75.8-74,162.6c-2.1-5.4-5.3-10.3-9.7-14.7c-8.4-8.5-19.6-13.7-33.7-15.6
		c-9.2-1.5-29.5-2.7-60.6-3.5c-17-0.5-27.6-1.1-31.8-1.8c-7.3-1-12.2-2.8-14.7-5.2c-2.5-2.4-3.7-4.9-3.7-7.4c0-3,1.2-6.6,3.5-10.9
		c2.4-4.3,6.9-9.3,13.5-15c10.7,3.1,21.2,4.6,31.5,4.6c24.9,0,44.8-6.9,59.6-20.7c14.8-13.8,22.2-30.4,22.2-49.8
		c0-15.5-3.5-28.4-10.6-38.9h31.5l10.3-29.7h-3.2c-1.5,2.6-3.2,4.6-5.2,6c-2,1.4-4.2,2.3-6.7,2.8c-2.5,0.5-6.8,0.7-13,0.7h-29.9
		l-0.2-0.2c3.7-3.4,12.4-12.7,26.4-27.9c9.5-10.4,16.4-20.2,20.6-29.4c2.7-5.9,4.1-11.8,4.1-17.7c0-8.2-3.2-15.4-9.5-21.5
		c-6.3-6.1-14.2-9.1-23.6-9.1c-8.9,0-16.3,2.8-22.2,8.5c-5.9,5.7-9.6,13.8-11,24.4h3.2c2.2-6.5,5.5-11.4,10.1-14.7
		c4.5-3.3,9.7-5,15.4-5c6.3,0,11.7,2.4,16.2,7.1c4.5,4.7,6.8,10.8,6.8,18.2c0,9.7-4.1,20.3-12.3,32c-6.1,8.6-15.4,19-27.9,31.3
		c-14.2-9-30.9-13.5-50.1-13.5c-24.2,0-44.1,7.4-59.6,22.3c-15.5,14.8-23.3,32.6-23.3,53.2c0,13.5,3.4,25.8,10.2,36.9
		c6.8,11.1,16.5,19.8,29.2,26c-15.6,13-25.5,23.1-29.8,30.2c-4.3,7.1-6.5,13.3-6.5,18.6c0,4.7,1.6,8.9,4.9,12.6
		C178.2,347.8,183.7,352,191.6,356.7z M329.4,369.7c-7.9-3.3-23.5-5.3-46.8-5.9c-34.1-0.9-60.2-2.7-78.6-5.3
		c-7.2,7.7-12.6,14.8-16.2,21.4c-3.3,6.1-5.1,11.7-5.4,16.8c16,22.8,34.5,49.2,55.8,80.1c8.6,12.4,26.9,12.4,35.5,0
		c26.3-38.1,48.3-69.4,66.6-95.5C339,376.2,335.4,372.2,329.4,369.7z M251.6,280.3c11.5,0,20.9-4.3,28.3-12.9
		c7.4-8.6,11.1-22.1,11.1-40.5c0-24-5.2-42.8-15.6-56.4c-7.7-10-17.6-14.9-29.6-14.9c-11.2,0-20.5,4.5-28,13.4
		c-7.5,8.9-11.3,22.6-11.3,41c0,23.9,5.1,42.3,15.4,55.5C229.6,275.3,239.5,280.3,251.6,280.3z"/>
	<path class="st2" d="M344.9,346.3c-8.4-8.5-19.6-13.7-33.7-15.6c-9.2-1.5-29.5-2.7-60.6-3.5c-17-0.5-27.6-1.1-31.8-1.8
		c-7.3-1-12.2-2.8-14.7-5.2c-2.5-2.4-3.7-4.9-3.7-7.4c0-3,1.2-6.6,3.5-10.9c2.4-4.3,6.9-9.3,13.5-15c10.7,3.1,21.2,4.6,31.5,4.6
		c24.9,0,44.8-6.9,59.6-20.7c14.8-13.8,22.2-30.4,22.2-49.8c0-15.5-3.5-28.4-10.6-38.9h31.5l10.3-29.7h-3.2c-1.5,2.6-3.2,4.6-5.2,6
		c-2,1.4-4.2,2.3-6.7,2.8c-2.5,0.5-6.8,0.7-13,0.7h-29.9l-0.2-0.2c3.7-3.4,12.4-12.7,26.4-27.9c9.5-10.4,16.4-20.2,20.6-29.4
		c2.7-5.9,4.1-11.8,4.1-17.7c0-8.2-3.2-15.4-9.5-21.5c-6.3-6.1-14.2-9.1-23.6-9.1c-8.9,0-16.3,2.8-22.2,8.5
		c-5.9,5.7-9.6,13.8-11,24.4h3.2c2.2-6.5,5.5-11.4,10.1-14.7c4.5-3.3,9.7-5,15.4-5c6.3,0,11.7,2.4,16.2,7.1
		c4.5,4.7,6.8,10.8,6.8,18.2c0,9.7-4.1,20.3-12.3,32c-6.1,8.6-15.4,19-27.9,31.3c-14.2-9-30.9-13.5-50.1-13.5
		c-24.2,0-44.1,7.4-59.6,22.3c-15.5,14.8-23.3,32.6-23.3,53.2c0,13.5,3.4,25.8,10.2,36.9c6.8,11.1,16.5,19.8,29.2,26
		c-15.6,13-25.5,23.1-29.8,30.2c-4.3,7.1-6.5,13.3-6.5,18.6c0,4.7,1.6,8.9,4.9,12.6c3.2,3.7,8.8,7.9,16.7,12.6
		c-11.2,11.6-18.4,19.1-21.5,22.5c3.9,5.6,8,11.5,12.3,17.6c0.3-5.2,2.1-10.8,5.4-16.8c3.7-6.6,9.1-13.8,16.2-21.4
		c18.3,2.6,44.5,4.4,78.6,5.3c23.3,0.6,38.9,2.6,46.8,5.9c6,2.6,9.6,6.5,11,11.7c5-7.1,9.8-13.9,14.2-20.3
		C352.5,355.6,349.3,350.7,344.9,346.3z M217.7,168.9c7.5-8.9,16.9-13.4,28-13.4c12.1,0,21.9,5,29.6,14.9
		c10.4,13.6,15.6,32.4,15.6,56.4c0,18.4-3.7,31.9-11.1,40.5c-7.4,8.6-16.8,12.9-28.3,12.9c-12.1,0-22-5-29.9-14.9
		c-10.3-13.1-15.4-31.6-15.4-55.5C206.4,191.5,210.1,177.8,217.7,168.9z"/>
</g>
</svg>
