<?xml version="1.0" encoding="utf-8"?>
<!-- Generator: Adobe Illustrator 25.2.3, SVG Export Plug-In . SVG Version: 6.00 Build 0)  -->
<svg version="1.1" id="Layer_1" xmlns="http://www.w3.org/2000/svg" xmlns:xlink="http://www.w3.org/1999/xlink" x="0px" y="0px"
	 viewBox="0 0 1365.3 1365.3" style="enable-background:new 0 0 1365.3 1365.3;" xml:space="preserve">
<style type="text/css">
	.st0{fill:#FFFFFF;}
</style>
<g>
	<path d="M491.7,981.3c-33.2,34.5-54.5,56.7-63.7,66.8C216,745.9,170.7,675.7,170.7,512c0-282.7,229.2-511.9,511.9-511.9
		s511.9,229.2,511.9,511.9c0,153.5-39.8,224.7-219.5,482.2c-6.2-16.1-15.8-30.7-28.7-43.7c-24.9-25.1-58.3-40.5-100-46.3
		c-27.4-4.5-87.3-8-179.8-10.5c-50.3-1.5-81.7-3.2-94.3-5.2c-21.6-3.1-36-8.2-43.4-15.3c-7.4-7.1-11.1-14.4-11.1-22
		c0-8.9,3.5-19.6,10.4-32.3c7-12.7,20.4-27.4,40.2-44.3c31.8,9.1,63,13.7,93.4,13.7c73.9,0,132.8-20.5,176.7-61.4
		c43.9-40.9,65.9-90.2,65.9-147.8c0-45.9-10.5-84.3-31.4-115.3h93.4l30.4-88.2h-9.4c-4.4,7.6-9.6,13.5-15.5,17.7
		c-5.9,4.2-12.6,6.9-20,8.3c-7.4,1.4-20.2,2-38.5,2h-88.7l-0.6-0.7c10.9-10.1,36.9-37.6,78.2-82.7c28.2-30.7,48.5-59.8,61.1-87.3
		c8.1-17.5,12.2-35,12.2-52.4c0-24.4-9.4-45.7-28.1-63.7c-18.7-18-42.1-27-70.1-27c-26.3,0-48.2,8.4-65.7,25.2
		c-17.6,16.8-28.4,40.9-32.7,72.3h9.4c6.4-19.1,16.4-33.7,29.8-43.6c13.5-9.9,28.7-14.9,45.6-14.9c18.6,0,34.6,7,48,21.1
		c13.4,14.1,20.1,32,20.1,53.9c0,28.7-12.2,60.3-36.6,94.9c-18,25.5-45.5,56.4-82.6,92.7c-42.2-26.7-91.7-40.1-148.5-40.1
		c-71.8,0-130.7,22-176.7,66c-46,44-69,96.5-69,157.6c0,40,10.1,76.5,30.2,109.5c20.1,33,49,58.7,86.7,77.1
		c-46.2,38.6-75.6,68.5-88.4,89.6c-12.8,21.1-19.2,39.5-19.2,55.3c0,13.9,4.8,26.4,14.5,37.4C451.9,954.9,468.4,967.4,491.7,981.3z
		 M900.3,1019.8c-23.3-9.8-69.6-15.6-138.7-17.4c-101-2.7-178.6-7.9-232.9-15.7c-21.2,22.7-37.2,43.9-48.1,63.5
		c-9.9,18-15.2,34.6-16.1,49.9c47.5,67.6,102.3,145.8,165.5,237.5c25.4,36.7,79.8,36.7,105.2,0c78-113.1,143.2-205.7,197.6-283.2
		C928.8,1038.9,918,1027.4,900.3,1019.8z M669.6,754.8c34,0,61.9-12.8,83.8-38.3c21.9-25.5,32.9-65.6,32.9-120.2
		c0-71.2-15.4-126.9-46.3-167.2c-22.8-29.5-52.1-44.3-87.8-44.3c-33.1,0-60.8,13.2-83.2,39.6c-22.4,26.4-33.5,66.9-33.5,121.5
		c0,70.7,15.2,125.6,45.6,164.5C604.3,740,633.8,754.8,669.6,754.8z"/>
	<path class="st0" d="M946.4,950.5c-24.9-25.1-58.3-40.5-100-46.3c-27.4-4.5-87.3-8-179.8-10.5c-50.3-1.5-81.7-3.2-94.3-5.2
		c-21.6-3.1-36-8.2-43.4-15.3c-7.4-7.1-11.1-14.4-11.1-22c0-8.9,3.5-19.6,10.4-32.3c7-12.7,20.4-27.4,40.2-44.3
		c31.8,9.1,63,13.7,93.4,13.7c73.9,0,132.8-20.5,176.7-61.4c43.9-40.9,65.9-90.2,65.9-147.8c0-45.9-10.5-84.3-31.4-115.3h93.4
		l30.4-88.2h-9.4c-4.4,7.6-9.6,13.5-15.5,17.7c-5.9,4.2-12.6,6.9-20,8.3c-7.4,1.4-20.2,2-38.5,2h-88.7l-0.6-0.7
		c10.9-10.1,36.9-37.6,78.2-82.7c28.2-30.7,48.5-59.8,61.1-87.3c8.1-17.5,12.2-35,12.2-52.4c0-24.4-9.4-45.7-28.1-63.7
		c-18.7-18-42.1-27-70.1-27c-26.3,0-48.2,8.4-65.7,25.2c-17.6,16.8-28.4,40.9-32.7,72.3h9.4c6.4-19.1,16.4-33.7,29.8-43.6
		c13.5-9.9,28.7-14.9,45.6-14.9c18.6,0,34.6,7,48,21.1c13.4,14.1,20.1,32,20.1,53.9c0,28.7-12.2,60.3-36.6,94.9
		c-18,25.5-45.5,56.4-82.6,92.7c-42.2-26.7-91.7-40.1-148.5-40.1c-71.8,0-130.7,22-176.7,66c-46,44-69,96.5-69,157.6
		c0,40,10.1,76.5,30.2,109.5c20.1,33,49,58.7,86.7,77.1c-46.2,38.6-75.6,68.5-88.4,89.6c-12.8,21.1-19.2,39.5-19.2,55.3
		c0,13.9,4.8,26.4,14.5,37.4c9.6,11,26.1,23.5,49.4,37.4c-33.2,34.5-54.5,56.7-63.7,66.8c11.7,16.7,23.9,34,36.6,52.1
		c0.8-15.3,6.1-32,16.1-49.9c10.8-19.6,26.9-40.8,48.1-63.5c54.3,7.7,131.9,12.9,232.9,15.7c69.1,1.8,115.3,7.6,138.7,17.4
		c17.7,7.6,28.5,19.1,32.5,34.7c14.9-21.2,28.9-41.2,42.2-60.3C968.8,978.1,959.3,963.5,946.4,950.5z M569,424.5
		c22.4-26.4,50.1-39.6,83.2-39.6c35.8,0,65.1,14.8,87.8,44.3c30.8,40.3,46.3,96,46.3,167.2c0,54.6-11,94.7-32.9,120.2
		c-21.9,25.5-49.8,38.3-83.8,38.3c-35.8,0-65.3-14.8-88.5-44.3c-30.4-38.9-45.6-93.8-45.6-164.5C535.5,491.4,546.6,450.9,569,424.5z
		"/>
</g>
</svg>
