<?xml version="1.0" encoding="utf-8"?>
<!-- Generator: Adobe Illustrator 25.2.3, SVG Export Plug-In . SVG Version: 6.00 Build 0)  -->
<svg version="1.1" id="Layer_1" focusable="false" xmlns="http://www.w3.org/2000/svg" xmlns:xlink="http://www.w3.org/1999/xlink"
	 x="0px" y="0px" viewBox="0 0 384 512" style="enable-background:new 0 0 384 512;" xml:space="preserve">
<style type="text/css">
	.st0{fill:url(#SVGID_1_);}
	.st1{fill:#FFFFFF;}
</style>
<g>
	<linearGradient id="SVGID_1_" gradientUnits="userSpaceOnUse" x1="0" y1="256.0001" x2="384" y2="256.0001">
		<stop  offset="9.057242e-07" style="stop-color:#5AC8E9"/>
		<stop  offset="1" style="stop-color:#066881"/>
	</linearGradient>
	<path class="st0" d="M120.4,368c-12.5,12.9-20.4,21.3-23.9,25.1C17,279.7,0,253.4,0,192C0,86,86,0,192,0s192,86,192,192
		c0,57.6-14.9,84.3-82.3,180.8c-2.3-6-5.9-11.5-10.8-16.4c-9.3-9.4-21.9-15.2-37.5-17.4c-10.3-1.7-32.8-3-67.4-3.9
		c-18.9-0.6-30.7-1.2-35.4-2c-8.1-1.2-13.5-3.1-16.3-5.8c-2.8-2.7-4.2-5.4-4.2-8.2c0-3.3,1.3-7.4,3.9-12.1
		c2.6-4.8,7.6-10.3,15.1-16.6c11.9,3.4,23.6,5.1,35,5.1c27.7,0,49.8-7.7,66.3-23c16.5-15.4,24.7-33.8,24.7-55.4
		c0-17.2-3.9-31.6-11.8-43.2h35l11.4-33.1h-3.5c-1.7,2.9-3.6,5.1-5.8,6.6c-2.2,1.6-4.7,2.6-7.5,3.1c-2.8,0.5-7.6,0.8-14.4,0.8h-33.3
		l-0.2-0.3c4.1-3.8,13.8-14.1,29.3-31c10.6-11.5,18.2-22.4,22.9-32.7c3.1-6.6,4.6-13.1,4.6-19.7c0-9.2-3.5-17.1-10.5-23.9
		c-7-6.7-15.8-10.1-26.3-10.1c-9.9,0-18.1,3.2-24.7,9.5c-6.6,6.3-10.7,15.3-12.3,27.1h3.5c2.4-7.2,6.1-12.6,11.2-16.4
		c5-3.7,10.8-5.6,17.1-5.6c7,0,13,2.6,18,7.9c5,5.3,7.5,12,7.5,20.2c0,10.8-4.6,22.6-13.7,35.6c-6.7,9.6-17.1,21.1-31,34.8
		c-15.8-10-34.4-15-55.7-15c-26.9,0-49,8.3-66.3,24.8c-17.3,16.5-25.9,36.2-25.9,59.1c0,15,3.8,28.7,11.3,41.1
		c7.6,12.4,18.4,22,32.5,28.9c-17.3,14.5-28.4,25.7-33.1,33.6c-4.8,7.9-7.2,14.8-7.2,20.7c0,5.2,1.8,9.9,5.4,14
		C105.5,358.1,111.6,362.8,120.4,368z M273.6,382.4c-8.8-3.7-26.1-5.8-52-6.5c-37.9-1-67-3-87.4-5.9c-8,8.5-14,16.5-18,23.8
		c-3.7,6.7-5.7,13-6,18.7c17.8,25.4,38.4,54.7,62.1,89.1c9.5,13.8,29.9,13.8,39.5,0c29.2-42.4,53.7-77.1,74.1-106.2
		C284.3,389.6,280.3,385.3,273.6,382.4z M187.1,283c12.7,0,23.2-4.8,31.4-14.3c8.2-9.6,12.3-24.6,12.3-45.1
		c0-26.7-5.8-47.6-17.4-62.7c-8.5-11.1-19.5-16.6-32.9-16.6c-12.4,0-22.8,5-31.2,14.9c-8.4,9.9-12.6,25.1-12.6,45.6
		c0,26.5,5.7,47.1,17.1,61.7C162.6,277.5,173.7,283,187.1,283z"/>
	<path class="st1" d="M290.9,356.5c-9.3-9.4-21.9-15.2-37.5-17.4c-10.3-1.7-32.8-3-67.4-3.9c-18.9-0.6-30.7-1.2-35.4-2
		c-8.1-1.2-13.5-3.1-16.3-5.8c-2.8-2.7-4.2-5.4-4.2-8.2c0-3.3,1.3-7.4,3.9-12.1c2.6-4.8,7.6-10.3,15.1-16.6
		c11.9,3.4,23.6,5.1,35,5.1c27.7,0,49.8-7.7,66.3-23c16.5-15.4,24.7-33.8,24.7-55.4c0-17.2-3.9-31.6-11.8-43.2h35l11.4-33.1h-3.5
		c-1.7,2.9-3.6,5.1-5.8,6.6c-2.2,1.6-4.7,2.6-7.5,3.1c-2.8,0.5-7.6,0.8-14.4,0.8h-33.3l-0.2-0.3c4.1-3.8,13.8-14.1,29.3-31
		c10.6-11.5,18.2-22.4,22.9-32.7c3.1-6.6,4.6-13.1,4.6-19.7c0-9.2-3.5-17.1-10.5-23.9c-7-6.7-15.8-10.1-26.3-10.1
		c-9.9,0-18.1,3.2-24.7,9.5c-6.6,6.3-10.7,15.3-12.3,27.1h3.5c2.4-7.2,6.1-12.6,11.2-16.4c5-3.7,10.8-5.6,17.1-5.6
		c7,0,13,2.6,18,7.9c5,5.3,7.5,12,7.5,20.2c0,10.8-4.6,22.6-13.7,35.6c-6.7,9.6-17.1,21.1-31,34.8c-15.8-10-34.4-15-55.7-15
		c-26.9,0-49,8.3-66.3,24.8c-17.3,16.5-25.9,36.2-25.9,59.1c0,15,3.8,28.7,11.3,41.1c7.6,12.4,18.4,22,32.5,28.9
		c-17.3,14.5-28.4,25.7-33.1,33.6c-4.8,7.9-7.2,14.8-7.2,20.7c0,5.2,1.8,9.9,5.4,14c3.6,4.1,9.8,8.8,18.5,14
		c-12.5,12.9-20.4,21.3-23.9,25.1c4.4,6.2,8.9,12.8,13.7,19.5c0.3-5.8,2.3-12,6-18.7c4.1-7.4,10.1-15.3,18-23.8
		c20.4,2.9,49.5,4.9,87.4,5.9c25.9,0.7,43.3,2.8,52,6.5c6.6,2.8,10.7,7.2,12.2,13c5.6-7.9,10.8-15.5,15.8-22.6
		C299.3,366.8,295.8,361.3,290.9,356.5z M149.4,159.2c8.4-9.9,18.8-14.9,31.2-14.9c13.4,0,24.4,5.5,32.9,16.6
		c11.6,15.1,17.4,36,17.4,62.7c0,20.5-4.1,35.5-12.3,45.1c-8.2,9.6-18.7,14.3-31.4,14.3c-13.4,0-24.5-5.5-33.2-16.6
		c-11.4-14.6-17.1-35.2-17.1-61.7C136.8,184.3,141,169.1,149.4,159.2z"/>
</g>
</svg>
