<?xml version="1.0" encoding="utf-8"?>
<!-- Generator: Adobe Illustrator 25.2.3, SVG Export Plug-In . SVG Version: 6.00 Build 0)  -->
<svg version="1.1" id="Layer_1" focusable="false" xmlns="http://www.w3.org/2000/svg" xmlns:xlink="http://www.w3.org/1999/xlink"
	 x="0px" y="0px" viewBox="0 0 384 384" style="enable-background:new 0 0 384 384;" xml:space="preserve">
<style type="text/css">
	.st0{fill:#777777;}
	.st1{fill:#FFFFFF;}
</style>
<g>
	<path class="st0" d="M281.5,362.1c-26.6,14-56.9,21.9-89,21.9c-23.7,0-46.5-4.3-67.5-12.2c-0.1-0.7-0.2-1.7-0.2-2.4
		c0-5.5,1.8-11.5,5.4-18.1c3.6-6.6,9-13.6,16.1-21.2c18.1,2.6,44.1,4.3,77.8,5.2c23.1,0.6,38.5,2.5,46.3,5.8
		c7.6,3.3,11.5,8.8,11.5,16.5C281.9,359.1,281.8,360.6,281.5,362.1z M193.4,252.6c11.3,0,20.7-4.3,28-12.8c7.3-8.5,11-21.9,11-40.2
		c0-23.8-5.2-42.4-15.5-55.8c-7.6-9.9-17.4-14.8-29.3-14.8c-11.1,0-20.3,4.4-27.8,13.2c-7.5,8.8-11.2,22.4-11.2,40.6
		c0,23.6,5.1,41.9,15.2,54.9C171.6,247.7,181.4,252.6,193.4,252.6z M192.5,0c-106,0-192,86-192,192c0,73.9,41.8,138.1,103,170.2
		c2.1-2.9,4.8-6.3,7.5-9.7c1-1.3,8.7-9.4,23-24.2c-7.8-4.7-13.3-8.8-16.5-12.5c-3.2-3.7-4.8-7.8-4.8-12.5c0-5.2,2.1-11.4,6.4-18.5
		c4.3-7.1,14.1-17,29.5-29.9c-12.6-6.1-22.2-14.7-29-25.8c-6.7-11-10.1-23.2-10.1-36.6c0-20.4,7.7-37.9,23.1-52.6
		c15.4-14.7,35.1-22.1,59-22.1c19,0,35.5,4.5,49.6,13.4c12.4-12.1,21.6-22.5,27.6-31C277,88.7,281,78.1,281,68.5
		c0-7.3-2.2-13.3-6.7-18c-4.5-4.7-9.8-7-16-7c-5.7,0-10.7,1.7-15.2,5c-4.5,3.3-7.8,8.2-10,14.6H230c1.4-10.5,5.1-18.5,10.9-24.2
		c5.9-5.6,13.2-8.4,22-8.4c9.3,0,17.1,3,23.4,9c6.3,6,9.4,13.1,9.4,21.3c0,5.8-1.4,11.7-4.1,17.5c-4.2,9.2-11,18.9-20.4,29.2
		c-13.8,15-22.5,24.2-26.1,27.6l0.2,0.2h29.6c6.1,0,10.4-0.2,12.9-0.7c2.5-0.5,4.7-1.4,6.7-2.8c2-1.4,3.7-3.4,5.2-5.9h3.2
		l-10.2,29.4h-31.2c7,10.3,10.5,23.2,10.5,38.5c0,19.2-7.3,35.7-22,49.4c-14.7,13.7-34.4,20.5-59,20.5c-10.2,0-20.6-1.5-31.2-4.6
		c-6.6,5.6-11.1,10.6-13.4,14.8c-2.3,4.2-3.5,7.8-3.5,10.8c0,2.5,1.2,5,3.7,7.3c2.5,2.4,7.3,4.1,14.5,5.1c4.2,0.7,14.7,1.2,31.5,1.7
		c30.9,0.8,50.9,2,60.1,3.5c13.9,1.9,25.1,7.1,33.4,15.5c8.3,8.4,12.5,18.7,12.5,30.9c0,1.1,0,2.2-0.1,3.3
		c52-34.4,86.3-93.3,86.3-160.3C384.5,86,298.5,0,192.5,0z"/>
	<path class="st0" d="M216.9,143.8c10.3,13.5,15.5,32.1,15.5,55.8c0,18.2-3.7,31.6-11,40.2c-7.3,8.5-16.7,12.8-28,12.8
		c-12,0-21.8-4.9-29.6-14.8c-10.2-13-15.2-31.3-15.2-54.9c0-18.2,3.7-31.8,11.2-40.6c7.5-8.8,16.7-13.2,27.8-13.2
		C199.5,129,209.3,133.9,216.9,143.8z M134,328.3c-7.8-4.7-13.3-8.8-16.5-12.5c-3.2-3.7-4.8-7.8-4.8-12.5c0-5.2,2.1-11.4,6.4-18.5
		c4.3-7.1,14.1-17,29.5-29.9c-12.6-6.1-22.2-14.7-29-25.8c-6.7-11-10.1-23.2-10.1-36.6c0-20.4,7.7-37.9,23.1-52.6
		c15.4-14.7,35.1-22.1,59-22.1c19,0,35.5,4.5,49.6,13.4c12.4-12.1,21.6-22.5,27.6-31C277,88.7,281,78.1,281,68.5
		c0-7.3-2.2-13.3-6.7-18c-4.5-4.7-9.8-7-16-7c-5.7,0-10.7,1.7-15.2,5c-4.5,3.3-7.8,8.2-10,14.6H230c1.4-10.5,5.1-18.5,10.9-24.2
		c5.9-5.6,13.2-8.4,22-8.4c5,0,9.6,0.9,13.7,2.6c-25.1-13.3-53.7-20.8-84.1-20.8C93.2,12.2,12.7,92.7,12.7,192
		c0,70,40,130.6,98.4,160.3C112.5,350.7,120.1,342.7,134,328.3z M282.3,36.2c1.4,1,2.7,2,3.9,3.2c6.3,6,9.4,13.1,9.4,21.3
		c0,5.8-1.4,11.7-4.1,17.5c-4.2,9.2-11,18.9-20.4,29.2c-13.8,15-22.5,24.2-26.1,27.6l0.2,0.2h29.6c6.1,0,10.4-0.2,12.9-0.7
		c2.5-0.5,4.7-1.4,6.7-2.8c2-1.4,3.7-3.4,5.2-5.9h3.2l-10.2,29.4h-31.2c7,10.3,10.5,23.2,10.5,38.5c0,19.2-7.3,35.7-22,49.4
		c-14.7,13.7-34.4,20.5-59,20.5c-10.2,0-20.6-1.5-31.2-4.6c-6.6,5.6-11.1,10.6-13.4,14.8c-2.3,4.2-3.5,7.8-3.5,10.8
		c0,2.5,1.2,5,3.7,7.3c2.5,2.4,7.3,4.1,14.5,5.1c4.2,0.7,14.7,1.2,31.5,1.7c30.9,0.8,50.9,2,60.1,3.5c13.9,1.9,25.1,7.1,33.4,15.5
		c5.8,5.8,9.5,12.5,11.3,20.2c45.5-32.6,75.1-85.9,75.1-146.2C372.3,125.4,336.1,67.3,282.3,36.2z M270.5,341.1
		c-7.8-3.3-23.2-5.2-46.3-5.8c-33.7-0.9-59.7-2.7-77.8-5.2c-7.1,7.6-12.4,14.7-16.1,21.2c-1.5,2.8-2.7,5.5-3.6,8
		c20.4,8,42.6,12.4,65.8,12.4c31.7,0,61.6-8.2,87.4-22.7C278.1,345.7,274.9,343,270.5,341.1z"/>
	<path class="st1" d="M302.7,125.9h-3.2c-1.5,2.6-3.2,4.5-5.2,5.9c-2,1.4-4.2,2.3-6.7,2.8c-2.5,0.5-6.8,0.7-12.9,0.7h-29.6L245,135
		c3.6-3.4,12.3-12.6,26.1-27.6c9.4-10.3,16.2-20,20.4-29.2c2.7-5.8,4.1-11.7,4.1-17.5c0-8.2-3.1-15.3-9.4-21.3c-6.3-6-14.1-9-23.4-9
		c-8.8,0-16.1,2.8-22,8.4C235,44.5,231.4,52.5,230,63h3.1c2.2-6.4,5.5-11.3,10-14.6c4.5-3.3,9.6-5,15.2-5c6.2,0,11.6,2.4,16,7
		c4.5,4.7,6.7,10.7,6.7,18c0,9.6-4.1,20.2-12.2,31.7c-6,8.5-15.2,18.8-27.6,31c-14.1-8.9-30.6-13.4-49.6-13.4
		c-24,0-43.7,7.4-59,22.1c-15.4,14.7-23.1,32.2-23.1,52.6c0,13.4,3.4,25.5,10.1,36.6c6.7,11,16.4,19.6,29,25.8
		c-15.4,12.9-25.3,22.9-29.5,29.9c-4.3,7.1-6.4,13.2-6.4,18.5c0,4.7,1.6,8.8,4.8,12.5c3.2,3.7,8.7,7.8,16.5,12.5
		c-14.3,14.8-21.9,22.9-23,24.2c-2.8,3.5-5.4,6.7-7.5,9.7c6.9,3.6,14.2,6.9,21.5,9.6c-0.1-0.7-0.2-1.6-0.2-2.4
		c0-5.5,1.8-11.5,5.4-18.1c3.6-6.6,9-13.6,16.1-21.2c18.1,2.6,44.1,4.3,77.8,5.2c23.1,0.6,38.5,2.5,46.3,5.8
		c7.6,3.3,11.5,8.8,11.5,16.5c0,1.6-0.1,3-0.4,4.5c5.8-3,11.3-6.3,16.7-9.9c0.1-1.2,0.1-2.1,0.1-3.3c0-12.3-4.2-22.6-12.5-30.9
		c-8.3-8.4-19.5-13.5-33.4-15.5c-9.2-1.5-29.2-2.7-60.1-3.5c-16.8-0.5-27.3-1.1-31.5-1.7c-7.2-1-12-2.7-14.5-5.1
		c-2.5-2.4-3.7-4.8-3.7-7.3c0-3,1.2-6.6,3.5-10.8c2.3-4.2,6.8-9.2,13.4-14.8c10.6,3,21,4.6,31.2,4.6c24.7,0,44.4-6.8,59-20.5
		c14.7-13.7,22-30.1,22-49.4c0-15.3-3.5-28.2-10.5-38.5h31.2L302.7,125.9z M221.4,239.8c-7.3,8.5-16.7,12.8-28,12.8
		c-12,0-21.8-4.9-29.6-14.8c-10.2-13-15.2-31.3-15.2-54.9c0-18.2,3.7-31.8,11.2-40.6c7.5-8.8,16.7-13.2,27.8-13.2
		c11.9,0,21.7,4.9,29.3,14.8c10.3,13.5,15.5,32.1,15.5,55.8C232.4,217.9,228.7,231.3,221.4,239.8z"/>
</g>
</svg>
